<svg xmlns="http://www.w3.org/2000/svg" xmlns:xlink="http://www.w3.org/1999/xlink" width="500" zoomAndPan="magnify" viewBox="0 0 375 374.999991" height="500" preserveAspectRatio="xMidYMid meet" version="1.0"><path fill="#000000" d="M 166.671875 160.53125 L 187.5 160.53125 L 187.5 202.910156 L 166.671875 202.910156 Z M 166.671875 160.53125 " fill-opacity="1" fill-rule="nonzero"/><path fill="#000000" d="M 375 118.148438 L 0 118.148438 L 0 245.308594 L 104.171875 245.308594 L 104.171875 266.5 L 187.5 266.5 L 187.5 245.308594 L 375 245.308594 Z M 104.171875 224.117188 L 83.328125 224.117188 L 83.328125 160.53125 L 62.5 160.53125 L 62.5 224.101562 L 20.828125 224.101562 L 20.828125 139.339844 L 104.15625 139.339844 L 104.15625 224.117188 Z M 208.328125 224.117188 L 166.65625 224.117188 L 166.65625 245.308594 L 125 245.308594 L 125 139.339844 L 208.328125 139.339844 Z M 354.171875 224.117188 L 333.34375 224.117188 L 333.34375 160.53125 L 312.5 160.53125 L 312.5 224.101562 L 291.671875 224.101562 L 291.671875 160.53125 L 270.84375 160.53125 L 270.84375 224.101562 L 229.171875 224.101562 L 229.171875 139.339844 L 354.171875 139.339844 Z M 354.171875 224.117188 " fill-opacity="1" fill-rule="nonzero"/></svg>